<?xml version="1.0" encoding="UTF-8"?>
<svg xmlns="http://www.w3.org/2000/svg" id="Icons" viewBox="0 0 60 60" width="512" height="512"><path d="M6,12a6,6,0,1,0,6-6A6.006,6.006,0,0,0,6,12Zm6-4a4,4,0,1,1-4,4A4,4,0,0,1,12,8Z"/><path d="M13,3V1a1,1,0,0,0-2,0V3a1,1,0,0,0,2,0Z"/><path d="M11,21v2a1,1,0,0,0,2,0V21a1,1,0,0,0-2,0Z"/><path d="M7.366,1.974a1,1,0,1,0-1.732,1l1,1.732a1,1,0,1,0,1.732-1Z"/><path d="M17.366,19.294a1,1,0,0,0-1.732,1l1,1.732a1,1,0,1,0,1.732-1Z"/><path d="M4.706,6.634l-1.732-1a1,1,0,1,0-1,1.732l1.732,1a1,1,0,1,0,1-1.732Z"/><path d="M19.294,17.366c1.854,1.071,1.865,1.134,2.231,1.134a1,1,0,0,0,.5-1.866l-1.732-1a1,1,0,0,0-1,1.732Z"/><path d="M23,11H21a1,1,0,0,0,0,2h2a1,1,0,0,0,0-2Z"/><path d="M0,12a1,1,0,0,0,1,1H3a1,1,0,0,0,0-2H1A1,1,0,0,0,0,12Z"/><path d="M3.706,15.634l-1.732,1a1,1,0,1,0,1,1.732l1.732-1a1,1,0,1,0-1-1.732Z"/><path d="M21.026,5.634l-1.732,1a1,1,0,0,0,1,1.732l1.732-1a1,1,0,1,0-1-1.732Z"/><path d="M6,22.393a1,1,0,0,0,1.366-.367l1-1.732a1,1,0,0,0-1.732-1l-1,1.732A1,1,0,0,0,6,22.393Z"/><path d="M18,1.607a1,1,0,0,0-1.366.367l-1,1.732a1,1,0,1,0,1.732,1l1-1.732A1,1,0,0,0,18,1.607Z"/><path d="M58,54.17a3.017,3.017,0,0,0-3.263-3.157,4.491,4.491,0,0,0-8.7,2.018A3.487,3.487,0,0,0,43.351,58h-1.8l-5.066-8H42a2,2,0,0,0,2-2V46a2,2,0,0,0-2-2H32.684l-3.167-5H39a2,2,0,0,0,2-2V35a2,2,0,0,0-2-2H5a2,2,0,0,0-2,2v2a2,2,0,0,0,2,2h9.52l-3.176,5H2a2,2,0,0,0-2,2v2a2,2,0,0,0,2,2H7.533L2.451,58H1a1,1,0,0,0,0,2H59a1,1,0,0,0,.7-1.713A2.985,2.985,0,0,0,58,54.17ZM45,56.5a1.5,1.5,0,0,1,2.069-1.386,1,1,0,0,0,1.257-1.41A2.488,2.488,0,1,1,52.98,52.35a1,1,0,0,0,1.512.8,1,1,0,0,1,1.359,1.367,1.011,1.011,0,0,0,1.028,1.5A1,1,0,1,1,57,58H46.5A1.5,1.5,0,0,1,45,56.5ZM42,46v2H35.217L33.95,46ZM39.183,58H35.89L23.857,39h3.292ZM18.1,46h7.821l1.267,2H16.832Zm1.271-2,2.646-4.165L24.656,44Zm-3.811,6H28.456l5.067,8H10.48ZM5,35H39v2H5ZM2,48V46h8.074L8.8,48Zm14.89-9h3.29L8.111,58H4.82Z"/><path d="M24,23.5A3.5,3.5,0,0,0,27.5,27H38a3,3,0,0,0,.995-5.83,3.018,3.018,0,0,0-3.263-3.157,4.491,4.491,0,0,0-8.7,2.018A3.506,3.506,0,0,0,24,23.5Zm4.069-1.386a1,1,0,0,0,1.257-1.41A2.488,2.488,0,1,1,33.98,19.35a1,1,0,0,0,1.512.8,1,1,0,0,1,1.359,1.367,1.011,1.011,0,0,0,1.028,1.5A1,1,0,1,1,38,25H27.5a1.5,1.5,0,1,1,.569-2.886Z"/><path d="M55.691,7A5.887,5.887,0,0,0,44.253,4.259a3.8,3.8,0,0,0-4.415,4.264A3.8,3.8,0,0,0,40.8,16H55.5a4.5,4.5,0,0,0,.191-9ZM55.5,14H40.8A1.8,1.8,0,0,1,39,12.2a1.784,1.784,0,0,1,2.062-1.769,1,1,0,0,0,1-1.508,1.789,1.789,0,0,1,2.452-2.46,1,1,0,0,0,1.51-.8A3.883,3.883,0,1,1,53.292,7.78a1,1,0,0,0,1.256,1.41A2.5,2.5,0,1,1,55.5,14Z"/></svg>
