<svg id="Education_-_Outline" enable-background="new 0 0 64 64" viewBox="0 0 64 64" xmlns="http://www.w3.org/2000/svg"><g><g><path d="m51.036 44.148h1.133c1.907 0 3.458-1.551 3.458-3.458s-1.551-3.458-3.458-3.458h-34.599c-5.072 0-9.198 4.126-9.198 9.197s4.126 9.197 9.198 9.197h34.599c1.907 0 3.458-1.551 3.458-3.458s-1.551-3.458-3.458-3.458h-1.133zm2.591 8.021c0 .804-.654 1.458-1.458 1.458h-34.599c-3.969 0-7.198-3.229-7.198-7.197s3.229-7.197 7.198-7.197h34.599c.804 0 1.458.654 1.458 1.458s-.654 1.458-1.458 1.458h-35.088c-2.361 0-4.282 1.921-4.282 4.281s1.921 4.281 4.282 4.281h35.088c.804 0 1.458.654 1.458 1.458zm-36.546-3.458c-1.258 0-2.282-1.023-2.282-2.281s1.023-2.281 2.282-2.281h31.955v1.281h-21.17c-.552 0-1 .447-1 1s.448 1 1 1h21.17v1.281z"/><path d="m8.724 18.917 9.532 4.212v7.426c0 1.695 2.44 2.309 4.827 2.686 2.361.373 5.528.578 8.917.578 6.27 0 13.744-.566 13.744-3.264v-7.426l2.966-1.31v.948c-.705.435-1.189 1.309-1.208 2.358l-.516 4.169c-.035.285.053.57.243.785.189.215.463.338.749.338h3.463c.286 0 .56-.123.749-.338.19-.215.278-.5.243-.784l-.515-4.17c-.019-1.049-.503-1.924-1.209-2.358v-1.831l4.566-2.017c.362-.16.596-.519.596-.915s-.233-.754-.596-.914l-22.87-10.121c-.258-.115-.552-.115-.81 0l-22.872 10.119c-.362.16-.595.519-.595.914 0 .396.234.755.596.915zm40.385 9.499.384-3.103c.023-.35.095-.691.217-.814.088.084.203.492.218.813l.383 3.104zm-28.854-8.614c.175-.75 4.249-2.089 11.745-2.089s11.569 1.339 11.744 2.086v8.388c-3.039-1.443-8.786-1.651-11.744-1.651-2.957 0-8.706.208-11.744 1.651zm.081 10.634c.621-.713 4.402-1.9 11.664-1.9 7.296 0 11.076 1.198 11.668 1.898-.898.596-4.928 1.384-11.668 1.384-6.73 0-10.757-.785-11.664-1.382zm30.374-11.689v-1.494l1.689.747zm-18.71-9.77 16.71 7.392v3.262l-2.966 1.31v-1.142c0-3.792-10.52-4.086-13.744-4.086s-13.744.294-13.744 4.086v1.142l-6.655-2.94z"/><path d="m23.366 45.43h-4.384c-.552 0-1 .447-1 1s.448 1 1 1h4.384c.552 0 1-.447 1-1s-.448-1-1-1z"/></g></g></svg>